<?xml version="1.0" encoding="utf-8"?>
<!-- Svg Vector Icons : http://www.onlinewebfonts.com/icon -->
<!DOCTYPE svg PUBLIC "-//W3C//DTD SVG 1.1//EN" "http://www.w3.org/Graphics/SVG/1.1/DTD/svg11.dtd">
<svg version="1.1" xmlns="http://www.w3.org/2000/svg" xmlns:xlink="http://www.w3.org/1999/xlink" x="0px" y="0px" viewBox="0 0 1000 1000" enable-background="new 0 0 1000 1000" xml:space="preserve">
<metadata> Svg Vector Icons : http://www.onlinewebfonts.com/icon </metadata>
<g><path d="M717.8,10H282.2C131.8,10,10,131.9,10,282.2v435.6C10,868.1,131.8,990,282.2,990h435.6C868.1,990,990,868.1,990,717.8V282.2C990,131.9,868.1,10,717.8,10z M932.6,717.8c0,120.3-97.3,217.8-217.3,217.8H280.7c-120,0-217.3-97.5-217.3-217.8V282.2c0-120.3,97.3-217.8,217.3-217.8h434.6c120,0,217.3,97.5,217.3,217.8V717.8z"/><path d="M715.2,445.6h-163V282.2c0-31.2-24.3-54.4-54.3-54.4c-30,0-54.3,18-54.3,54.4v163.4h-163c-37.6,0-54.3,24.4-54.3,54.5c0,30.1,18.4,54.4,54.3,54.4h163v163.4c0,37.7,24.3,54.4,54.3,54.4c30,0,54.3-18.4,54.3-54.4V554.4h163c31.1,0,54.3-24.4,54.3-54.4C769.5,469.9,751.6,445.6,715.2,445.6z"/></g>
</svg>